<svg viewBox="0 0 16 16" xmlns="http://www.w3.org/2000/svg">
    <path
        d="M16 8C16 3.58172 12.4183 0 8 0C3.58172 0 0 3.58172 0 8C0 12.4183 3.58172 16 8 16C12.4183 16 16 12.4183 16 8Z"
        fill="#6C42EB" />
    <path
        d="M14 7.99463V8.56606C14 8.62891 13.9943 8.69177 13.9771 8.75463C13.9429 8.9032 13.8629 9.04034 13.7371 9.14891C12.4857 10.2461 10.2571 11.7146 7.98286 11.7146C5.70857 11.7146 3.49714 10.2461 2.26286 9.1432C2.14286 9.03463 2.06286 8.89749 2.02857 8.75463C2.00571 8.69177 2 8.62891 2 8.56606V7.99463C2 8.09177 2.01714 8.18891 2.05714 8.28034C2.10286 8.38891 2.17143 8.48606 2.26286 8.57177C2.33143 8.62891 2.4 8.69177 2.46857 8.75463C3.72571 9.8232 5.82286 11.1432 7.98286 11.1432C10.1429 11.1432 12.2457 9.82891 13.5314 8.75463C13.6057 8.69177 13.6686 8.63463 13.7371 8.57749C13.8343 8.49177 13.9029 8.39463 13.9429 8.28606C13.9829 8.18891 14 8.09177 14 7.99463Z"
        fill="#613BD3" />
    <path
        d="M13.9604 8.22848C13.9204 8.35991 13.8462 8.48562 13.7319 8.58277C12.4804 9.67991 10.2519 11.1485 7.97759 11.1485C5.7033 11.1485 3.49187 9.67991 2.25758 8.57705C2.14901 8.47991 2.07473 8.35991 2.03473 8.22848C1.9433 7.94276 2.0233 7.62276 2.26901 7.41705C3.48616 6.37134 5.68044 4.97705 7.97759 4.97705C10.2747 4.97705 12.4747 6.35991 13.7204 7.41134C13.9719 7.62277 14.0519 7.94276 13.9604 8.22848Z"
        fill="white" />
    <path
        d="M10.5018 8.06263C10.5018 9.44548 9.38752 10.5769 7.99895 10.5769C6.61038 10.5769 5.49609 9.4512 5.49609 8.06263C5.49609 8.01691 5.49609 7.96548 5.50181 7.91977C5.57609 6.60548 6.66181 5.54834 7.99895 5.54834C9.33609 5.54834 10.4218 6.59977 10.4961 7.91977C10.5018 7.96548 10.5018 8.01691 10.5018 8.06263Z"
        fill="url(#paint0_linear_8256_17323)" />
    <path
        d="M10.4961 7.91455C10.4218 9.22884 9.33609 10.286 7.99895 10.286C6.66181 10.286 5.57609 9.23455 5.50181 7.91455C5.49609 7.96027 5.49609 8.01169 5.49609 8.05741C5.49609 9.44027 6.61609 10.5717 7.99895 10.5717C9.38181 10.5717 10.5018 9.44598 10.5018 8.05741C10.5018 8.01169 10.5018 7.96027 10.4961 7.91455Z"
        fill="#69C793" />
    <path
        d="M7.97801 10.8574C5.3323 10.8574 2.88087 8.95457 2.03516 8.22314C2.07516 8.35457 2.14944 8.47457 2.25801 8.57172C3.48658 9.66886 5.69801 11.1431 7.97801 11.1431C10.258 11.1431 12.4752 9.68029 13.7323 8.57743C13.8466 8.48029 13.9209 8.35457 13.9609 8.22314C13.1094 8.94886 10.618 10.8574 7.97801 10.8574Z"
        fill="#E5E5E5" />
    <defs>
        <linearGradient id="paint0_linear_8256_17323" x1="7.99895" y1="10.5712" x2="7.99895"
            y2="5.54834" gradientUnits="userSpaceOnUse">
            <stop stop-color="#61D695" />
            <stop offset="1" stop-color="#86F6B8" />
        </linearGradient>
    </defs>
</svg>
    
    