<svg viewBox="0 0 68 20" xmlns="http://www.w3.org/2000/svg">
    <g clip-path="url(#clip0_7764_16399)">
        <path
            d="M19.6208 10C19.6208 4.47715 15.2285 0 9.81039 0C4.39226 0 0 4.47715 0 10C0 15.5228 4.39226 20 9.81039 20C15.2285 20 19.6208 15.5228 19.6208 10Z"
            fill="#6C42EB" />
        <path
            d="M17.1682 9.99286V10.7071C17.1682 10.7857 17.1612 10.8643 17.1401 10.9429C17.0981 11.1286 17 11.3 16.8458 11.4357C15.3112 12.8071 12.5783 14.6429 9.78936 14.6429C7.00041 14.6429 4.28854 12.8071 2.77494 11.4286C2.62778 11.2929 2.52968 11.1214 2.48763 10.9429C2.4596 10.8643 2.4526 10.7857 2.4526 10.7071V9.99286C2.4526 10.1143 2.47362 10.2357 2.52267 10.35C2.57873 10.4857 2.66282 10.6071 2.77494 10.7143C2.85903 10.7857 2.94312 10.8643 3.02721 10.9429C4.56884 12.2786 7.14056 13.9286 9.78936 13.9286C12.4382 13.9286 15.0169 12.2857 16.5936 10.9429C16.6847 10.8643 16.7617 10.7929 16.8458 10.7214C16.965 10.6143 17.0491 10.4929 17.0981 10.3571C17.1472 10.2357 17.1682 10.1143 17.1682 9.99286Z"
            fill="#613BD3" />
        <path
            d="M17.1191 10.2857C17.0701 10.45 16.979 10.6071 16.8388 10.7286C15.3042 12.1 12.5713 13.9357 9.78236 13.9357C6.9934 13.9357 4.28153 12.1 2.76793 10.7214C2.63479 10.6 2.54369 10.45 2.49464 10.2857C2.38252 9.92857 2.48063 9.52857 2.78195 9.27143C4.27453 7.96428 6.96537 6.22143 9.78236 6.22143C12.5993 6.22143 15.2972 7.95 16.8248 9.26429C17.1331 9.52857 17.2312 9.92857 17.1191 10.2857Z"
            fill="white" />
        <path
            d="M12.8796 10.0786C12.8796 11.8071 11.5132 13.2214 9.81039 13.2214C8.10758 13.2214 6.74114 11.8143 6.74114 10.0786C6.74114 10.0214 6.74114 9.95714 6.74814 9.9C6.83924 8.25714 8.17065 6.93571 9.81039 6.93571C11.4501 6.93571 12.7815 8.25 12.8726 9.9C12.8796 9.95714 12.8796 10.0214 12.8796 10.0786Z"
            fill="url(#paint0_linear_7764_16399)" />
        <path
            d="M12.8726 9.89286C12.7815 11.5357 11.4501 12.8571 9.81039 12.8571C8.17065 12.8571 6.83924 11.5429 6.74814 9.89286C6.74114 9.95 6.74114 10.0143 6.74114 10.0714C6.74114 11.8 8.11459 13.2143 9.81039 13.2143C11.5062 13.2143 12.8796 11.8071 12.8796 10.0714C12.8796 10.0143 12.8796 9.95 12.8726 9.89286Z"
            fill="#69C793" />
        <path
            d="M9.78236 13.5714C6.53792 13.5714 3.53174 11.1929 2.49464 10.2786C2.54369 10.4429 2.63479 10.5929 2.76793 10.7143C4.27453 12.0857 6.9864 13.9286 9.78236 13.9286C12.5783 13.9286 15.2972 12.1 16.8388 10.7214C16.979 10.6 17.0701 10.4429 17.1191 10.2786C16.075 11.1857 13.0198 13.5714 9.78236 13.5714Z"
            fill="#E5E5E5" />
        <path
            d="M36.4736 4.7C35.7378 4.7 35.0861 4.81429 34.5326 5.03571C33.986 5.25714 33.4464 5.62143 32.9138 6.12143C32.108 5.17857 31.0639 4.7 29.7815 4.7C28.8145 4.7 28.0087 5.00714 27.364 5.61429V5.00714H24.519V15H27.364V8.45C27.9246 7.7 28.5062 7.32143 29.1018 7.32143C29.7815 7.32143 30.3001 7.52857 30.6575 7.95C31.0289 8.36429 31.211 8.97143 31.211 9.76429V15H34.0561V9.51429C34.0561 9.22143 34.028 8.86429 33.972 8.42857C34.4905 7.69286 35.1072 7.32143 35.8149 7.32143C36.4806 7.32143 36.9922 7.52857 37.3495 7.95C37.7209 8.36429 37.9031 8.97143 37.9031 9.76429V15H40.7481V9.51429C40.7481 8.08571 40.3417 6.92143 39.5218 6.02857C38.702 5.13571 37.6859 4.69286 36.4736 4.69286V4.7Z"
            fill="#6C42EB" />
        <path
            d="M47.3561 4.29286C45.7725 4.29286 44.4411 4.81429 43.3759 5.85714C42.3248 6.88571 41.7993 8.2 41.7993 9.8C41.7993 11.4 42.3248 12.75 43.3759 13.8143C44.427 14.8714 45.7514 15.4 47.3561 15.4C48.9608 15.4 50.2502 14.8714 51.2943 13.8143C52.3454 12.7571 52.871 11.4214 52.871 9.8C52.871 8.17857 52.3454 6.88571 51.2943 5.85714C50.2432 4.81429 48.9328 4.29286 47.3561 4.29286ZM49.1921 11.85C48.7156 12.3929 48.1059 12.6643 47.3561 12.6643C46.6063 12.6643 45.9687 12.3929 45.4782 11.85C45.0016 11.3071 44.7634 10.6214 44.7634 9.8C44.7634 8.97857 45.0016 8.32857 45.4782 7.81429C45.9687 7.28571 46.5923 7.02143 47.3561 7.02143C48.1199 7.02143 48.7296 7.28571 49.1921 7.81429C49.6686 8.32857 49.9068 8.99286 49.9068 9.8C49.9068 10.6071 49.6686 11.3071 49.1921 11.85Z"
            fill="#6C42EB" />
        <path
            d="M59.5701 4.69286C58.533 4.69286 57.601 5.03571 56.7671 5.71429V5.00714H53.9221V15H56.7671V8.57857C57.4468 7.74286 58.1686 7.32857 58.9184 7.32857C59.5841 7.32857 60.1026 7.53572 60.474 7.95714C60.8454 8.37143 61.0276 8.97857 61.0276 9.77143V15.0071H63.8726V9.52143C63.8726 8.05 63.4802 6.87857 62.6884 6.01429C61.9105 5.13571 60.8734 4.7 59.5771 4.7L59.5701 4.69286Z"
            fill="#6C42EB" />
        <path
            d="M66.3252 3.32857C66.7947 3.32857 67.1941 3.17143 67.5165 2.85714C67.8388 2.54286 68 2.15 68 1.68571C68 1.22143 67.8388 0.807143 67.5165 0.492857C67.1941 0.164286 66.7947 0 66.3252 0C65.8557 0 65.4493 0.164286 65.1129 0.492857C64.7906 0.807143 64.6294 1.20714 64.6294 1.68571C64.6294 2.16429 64.7906 2.54286 65.1129 2.85714C65.4493 3.17143 65.8487 3.32857 66.3252 3.32857Z"
            fill="#6C42EB" />
        <path d="M67.7197 5H64.9167V14.9929H67.7197V5Z" fill="#6C42EB" />
    </g>
    <g clip-path="url(#clip1_7764_16399)">
        <path
            d="M36.4742 4.7C35.7384 4.7 35.0867 4.81429 34.5331 5.03571C33.9866 5.25714 33.447 5.62143 32.9144 6.12143C32.1086 5.17857 31.0645 4.7 29.7821 4.7C28.8151 4.7 28.0092 5.00714 27.3645 5.61429V5.00714H24.5195V15H27.3645V8.45C27.9251 7.7 28.5068 7.32143 29.1024 7.32143C29.7821 7.32143 30.3006 7.52857 30.658 7.95C31.0294 8.36429 31.2116 8.97143 31.2116 9.76429V15H34.0566V9.51429C34.0566 9.22143 34.0286 8.86429 33.9725 8.42857C34.4911 7.69286 35.1077 7.32143 35.8155 7.32143C36.4812 7.32143 36.9927 7.52857 37.3501 7.95C37.7215 8.36429 37.9037 8.97143 37.9037 9.76429V15H40.7487V9.51429C40.7487 8.08571 40.3423 6.92143 39.5224 6.02857C38.7025 5.13571 37.6865 4.69286 36.4742 4.69286V4.7Z"
            fill="#6C42EB" />
        <path
            d="M47.3567 4.29286C45.773 4.29286 44.4416 4.81429 43.3765 5.85714C42.3254 6.88571 41.7998 8.2 41.7998 9.8C41.7998 11.4 42.3254 12.75 43.3765 13.8143C44.4276 14.8714 45.752 15.4 47.3567 15.4C48.9614 15.4 50.2508 14.8714 51.2949 13.8143C52.346 12.7571 52.8715 11.4214 52.8715 9.8C52.8715 8.17857 52.346 6.88571 51.2949 5.85714C50.2438 4.81429 48.9334 4.29286 47.3567 4.29286ZM49.1926 11.85C48.7161 12.3929 48.1065 12.6643 47.3567 12.6643C46.6069 12.6643 45.9692 12.3929 45.4787 11.85C45.0022 11.3071 44.764 10.6214 44.764 9.8C44.764 8.97857 45.0022 8.32857 45.4787 7.81429C45.9692 7.28571 46.5929 7.02143 47.3567 7.02143C48.1205 7.02143 48.7302 7.28571 49.1926 7.81429C49.6692 8.32857 49.9074 8.99286 49.9074 9.8C49.9074 10.6071 49.6692 11.3071 49.1926 11.85Z"
            fill="#6C42EB" />
        <path
            d="M59.5706 4.69286C58.5336 4.69286 57.6016 5.03571 56.7677 5.71429V5.00714H53.9227V15H56.7677V8.57857C57.4474 7.74286 58.1692 7.32857 58.919 7.32857C59.5847 7.32857 60.1032 7.53572 60.4746 7.95714C60.846 8.37143 61.0282 8.97857 61.0282 9.77143V15.0071H63.8732V9.52143C63.8732 8.05 63.4808 6.87857 62.6889 6.01429C61.9111 5.13571 60.874 4.7 59.5776 4.7L59.5706 4.69286Z"
            fill="#6C42EB" />
        <path
            d="M66.3258 3.32857C66.7953 3.32857 67.1947 3.17143 67.5171 2.85714C67.8394 2.54286 68.0006 2.15 68.0006 1.68571C68.0006 1.22143 67.8394 0.807143 67.5171 0.492857C67.1947 0.164286 66.7953 0 66.3258 0C65.8563 0 65.4499 0.164286 65.1135 0.492857C64.7912 0.807143 64.63 1.20714 64.63 1.68571C64.63 2.16429 64.7912 2.54286 65.1135 2.85714C65.4499 3.17143 65.8493 3.32857 66.3258 3.32857Z"
            fill="#6C42EB" />
        <path d="M67.7203 5H64.9173V14.9929H67.7203V5Z" fill="#6C42EB" />
    </g>
    <defs>
        <linearGradient id="paint0_linear_7764_16399" x1="34" y1="19.9773" x2="34" y2="0"
            gradientUnits="userSpaceOnUse">
            <stop stop-color="#61D695" />
            <stop offset="1" stop-color="#86F6B8" />
        </linearGradient>
        <clipPath id="clip0_7764_16399">
            <rect width="20" height="20" fill="white" />
        </clipPath>
        <clipPath id="clip1_7764_16399">
            <rect width="44" height="20" fill="white" transform="translate(24)" />
        </clipPath>
    </defs>
</svg>
    